<svg xmlns="http://www.w3.org/2000/svg" viewBox="0 0 600 750" fill="none">
  <title>Face Study — Continuous Line</title>
  <desc>Minimal continuous line portrait study in warm charcoal on cream</desc>
  <rect width="600" height="750" fill="#F5F0E8"/>
  <path d="M300 30 C240 30 160 80 140 170 C120 260 140 340 180 390 C210 428 230 450 230 490 L230 720"
        stroke="#2A2825" stroke-width="1.8" stroke-linecap="round" fill="none" opacity="0.85"/>
  <path d="M140 170 C160 150 180 145 190 155"
        stroke="#2A2825" stroke-width="0.8" fill="none" opacity="0.5"/>
  <circle cx="182" cy="198" r="3.5" fill="#2A2825" opacity="0.7"/>
  <path d="M170 270 C180 260 200 255 210 265"
        stroke="#2A2825" stroke-width="0.6" fill="none" opacity="0.3"/>
  <path d="M156 350 C148 380 150 420 158 440"
        stroke="#2A2825" stroke-width="0.6" fill="none" opacity="0.25"/>
  <path d="M100 120 C120 80 180 50 300 30 C420 50 480 80 500 120"
        stroke="#2A2825" stroke-width="0.5" fill="none" opacity="0.15"/>
  <path d="M230 490 C240 520 260 540 280 545"
        stroke="#2A2825" stroke-width="0.7" fill="none" opacity="0.3"/>
</svg>
