<svg xmlns="http://www.w3.org/2000/svg" viewBox="0 0 600 600" fill="none">
  <title>Line Form — Abstract Composition</title>
  <desc>Abstract flowing line composition in warm tones</desc>
  <rect width="600" height="600" fill="#F5F0E8"/>
  <path d="M80 520 C120 400 100 280 180 200 C260 120 340 140 380 200 C420 260 440 340 400 420 C360 500 280 520 240 480 C200 440 220 360 280 320 C340 280 400 300 440 350"
        stroke="#2A2825" stroke-width="1.2" stroke-linecap="round" fill="none" opacity="0.7"/>
  <circle cx="280" cy="320" r="4" fill="#C67A5A" opacity="0.6"/>
  <circle cx="380" cy="200" r="3" fill="#2A2825" opacity="0.4"/>
  <path d="M120 400 C140 380 160 370 180 380"
        stroke="#C4A265" stroke-width="0.8" fill="none" opacity="0.5"/>
  <path d="M440 350 C420 380 400 420 380 450"
        stroke="#C4A265" stroke-width="0.8" fill="none" opacity="0.4"/>
  <path d="M200 560 C240 540 300 530 360 540"
        stroke="#2A2825" stroke-width="0.5" fill="none" opacity="0.15"/>
  <path d="M80 80 C120 60 180 50 240 60"
        stroke="#2A2825" stroke-width="0.4" fill="none" opacity="0.1"/>
  <path d="M520 480 C500 500 480 520 460 540"
        stroke="#C4A265" stroke-width="0.6" fill="none" opacity="0.25"/>
</svg>
