<svg xmlns="http://www.w3.org/2000/svg" viewBox="0 0 800 650" fill="none">
  <title>Field of Form — Organic Abstraction</title>
  <desc>Abstract organic composition in warm earth and moss tones</desc>
  <rect width="800" height="650" fill="#FAF7F2"/>
  <path d="M100 550 C150 400 250 350 350 380 C450 410 500 300 600 320 C700 340 750 420 700 520"
        stroke="#7A8B6F" stroke-width="2" fill="none" opacity="0.3"/>
  <path d="M150 520 C220 380 320 300 450 350 C550 390 620 280 700 300"
        stroke="#C67A5A" stroke-width="1.5" fill="none" opacity="0.25"/>
  <path d="M80 450 C180 350 280 400 380 330 C480 260 580 300 680 270 C730 255 760 270 780 260"
        stroke="#2A2825" stroke-width="0.8" fill="none" opacity="0.12"/>
  <ellipse cx="350" cy="380" rx="60" ry="30" fill="none" stroke="#C4A265" stroke-width="1" opacity="0.25"/>
  <ellipse cx="600" cy="320" rx="50" ry="25" fill="none" stroke="#C4A265" stroke-width="0.8" opacity="0.2"/>
  <circle cx="450" cy="350" r="5" fill="#C67A5A" opacity="0.2"/>
  <circle cx="300" cy="400" r="3" fill="#C67A5A" opacity="0.15"/>
  <path d="M50 580 C200 520 300 540 400 510 C500 480 600 500 750 490"
        stroke="#4A4A48" stroke-width="0.5" fill="none" opacity="0.1"/>
  <path d="M200 250 C250 220 300 230 350 210"
        stroke="#7A8B6F" stroke-width="0.6" fill="none" opacity="0.15"/>
  <path d="M500 220 C550 200 600 210 650 190"
        stroke="#7A8B6F" stroke-width="0.6" fill="none" opacity="0.12"/>
  <rect x="0" y="590" width="800" height="60" fill="#2A2825" opacity="0.02"/>
</svg>
