<svg xmlns="http://www.w3.org/2000/svg" viewBox="0 0 400 500" fill="none">
  <title>Botanical Study — Leaf and Stem</title>
  <desc>Delicate botanical line study in warm earth tones</desc>
  <rect width="400" height="500" fill="#FAF7F2"/>
  <path d="M200 480 C200 420 195 350 190 280 C185 220 180 160 175 100"
        stroke="#2A2825" stroke-width="1.5" stroke-linecap="round" fill="none" opacity="0.8"/>
  <path d="M190 280 C230 260 270 250 300 240"
        stroke="#2A2825" stroke-width="0.8" fill="none" opacity="0.5"/>
  <path d="M190 280 C160 300 140 310 120 320"
        stroke="#2A2825" stroke-width="0.8" fill="none" opacity="0.5"/>
  <path d="M175 100 C165 80 155 70 140 65"
        stroke="#2A2825" stroke-width="0.6" fill="none" opacity="0.4"/>
  <path d="M175 100 C185 80 200 70 220 68"
        stroke="#2A2825" stroke-width="0.6" fill="none" opacity="0.4"/>
  <path d="M195 350 C220 340 245 335 260 330"
        stroke="#4A4A48" stroke-width="0.5" fill="none" opacity="0.3"/>
  <path d="M195 350 C175 360 155 365 145 370"
        stroke="#4A4A48" stroke-width="0.5" fill="none" opacity="0.3"/>
  <circle cx="140" cy="65" r="2" fill="#C67A5A" opacity="0.6"/>
  <circle cx="220" cy="68" r="2" fill="#C67A5A" opacity="0.6"/>
  <path d="M300 240 C310 235 325 232 340 235"
        stroke="#2A2825" stroke-width="0.5" fill="none" opacity="0.3"/>
  <path d="M120 320 C105 325 95 335 90 345"
        stroke="#2A2825" stroke-width="0.5" fill="none" opacity="0.3"/>
  <path d="M200 480 C210 475 215 470 210 465"
        stroke="#C4A265" stroke-width="0.6" fill="none" opacity="0.4"/>
</svg>
